<?xml version="1.0" encoding="UTF-8"?>
<svg width="21px" height="32px" viewBox="0 0 21 32" version="1.1" xmlns="http://www.w3.org/2000/svg" xmlns:xlink="http://www.w3.org/1999/xlink">
    <title>9C683ABB-4319-49F0-8183-A294F86AE7B8</title>
    <g id="DESKTOP" stroke="none" stroke-width="1" fill="none" fill-rule="evenodd">
        <g id="Blog-Artikels" transform="translate(-881.000000, -1003.000000)">
            <g id="icon/podcast" transform="translate(881.000000, 1003.000000)">
                <polygon id="Fill-1" fill="#FFFFFF" points="0 11.2948817 0 13.1772678 0 15.059654 0 16.9420402 0 18.8244263 1.90910826 18.8244263 1.90910826 16.9420402 1.90910826 15.059654 1.90910826 13.1772678 1.90910826 11.2948817"></polygon>
                <polygon id="Fill-2" fill="#FFFFFF" points="1.90910826 20.706436 3.81821653 20.706436 3.81821653 18.8240498 1.90910826 18.8240498"></polygon>
                <polygon id="Fill-3" fill="#FFFFFF" points="3.81821653 22.5888222 5.72732479 22.5888222 5.72732479 20.706436 3.81821653 20.706436"></polygon>
                <polygon id="Fill-4" fill="#FFFFFF" points="13.3641397 22.5880692 11.4550314 22.5880692 9.54592314 22.5880692 7.63490577 22.5880692 5.72579751 22.5880692 5.72579751 24.4723377 7.63490577 24.4723377 9.54592314 24.4723377 9.54592314 26.3547239 9.54592314 28.2371101 9.54592314 30.1194962 7.63490577 30.1194962 5.72579751 30.1194962 5.72579751 32 7.63490577 32 9.54592314 32 11.4550314 32 13.3641397 32 15.2732479 32 15.2732479 30.1194962 13.3641397 30.1194962 11.4550314 30.1194962 11.4550314 28.2371101 11.4550314 26.3547239 11.4550314 24.4723377 13.3641397 24.4723377 15.2732479 24.4723377 15.2732479 22.5880692"></polygon>
                <polygon id="Fill-5" fill="#FFFFFF" points="15.2728661 22.5888222 17.1819744 22.5888222 17.1819744 20.706436 15.2728661 20.706436"></polygon>
                <polygon id="Fill-6" fill="#FFFFFF" points="17.1819744 20.706436 19.0910826 20.706436 19.0910826 18.8240498 17.1819744 18.8240498"></polygon>
                <polygon id="Fill-7" fill="#FFFFFF" points="19.0908917 11.2948817 19.0908917 13.1772678 19.0908917 15.059654 19.0908917 16.9420402 19.0908917 18.8244263 21 18.8244263 21 11.2948817"></polygon>
                <polygon id="Fill-8" fill="#303CF4" points="7.63566942 0 7.63566942 1.88238616 5.72656115 1.88238616 5.72656115 3.76477232 5.72656115 5.64715848 5.72656115 7.53142703 5.72656115 9.4119308 5.72656115 11.294317 5.72656115 13.1767031 5.72656115 15.0590893 5.72656115 16.9414754 7.63566942 16.9414754 7.63566942 18.8238616 9.54668679 18.8238616 11.4557951 18.8238616 13.3649033 18.8238616 13.3649033 16.9414754 15.2740116 16.9414754 15.2740116 15.0590893 15.2740116 13.1767031 15.2740116 11.294317 15.2740116 9.4119308 15.2740116 7.53142703 15.2740116 5.64715848 15.2740116 3.76477232 15.2740116 1.88238616 13.3649033 1.88238616 13.3649033 0"></polygon>
            </g>
        </g>
    </g>
</svg>